<svg xmlns="http://www.w3.org/2000/svg" version="1.1" viewBox="0 0 2048 2048" width="180" height="180">
<path transform="translate(1061)" d="m0 0h756l6 3 18 4 25 9 20 9 19 12 14 10 17 14 7 6v2l3 1 7 8 9 10 13 18 10 15 14 29 11 27 9 30 8 39 4 27 4 37 1 22v29l-1 19-3 23-1 5 1 2v9l-5 41-9 59-11 59-17 81-9 43-10 48-24 116-16 78-15 74-8 39-10 48-8 39-9 44-7 34-10 47-10 48-8 40-11 54-10 46-10 37-12 36-11 28-11 24-14 24-12 19-13 17-12 13-9 9-14 11-15 10-20 9-24 8h-21l-6 5-13 1h-903l-3-2 1-13 9-43 9-39-3-1h-525l-12-4h-8l-22-5-24-7-25-10-17-9-18-12-10-9-8-7-13-14-11-15-10-21-11-33-3-14v-7l-1-4v-67l2-28 8-44 14-82 22-109 18-87 10-48 15-73 10-48 24-116 9-45 14-68 13-64 13-62 24-116 11-47 9-33 12-36 11-27 8-16 11-20 10-16 11-16 11-13 16-16 11-9 14-9 21-10 23-7 9-2 16-1h628l7-1 4-9 6-26 8-38 7-28zm246 201-43 1-3 5-9 40-4 19-3 3-78 1-234 2h-288l-43 1-16 1-8 2-13 6-11 6-16 12-13 12-10 11-14 19-9 16-13 27-7 19-7 23-11 47-16 74-11 50-14 64-14 65-19 89-19 87-16 74-17 80-14 65-18 83-10 47-11 51-16 74-9 46-3 29 1 17 4 20 6 15 6 11 9 10 9 7 15 7 16 5 7 1 17 1h312l84-1 3-3 4-7v-2h103l571-1 17-5 15-6 19-10 16-12 14-12 10-12 11-16 8-13 14-27 9-24 10-35 14-62 18-83 15-69 11-52 15-69 14-66 15-72 9-42 17-80 12-55 17-80 15-69 14-68 11-51 15-71 7-33 4-28 1-11v-11l-3-19-6-20-6-11-8-10-7-7-11-7-9-4-15-3h-6l-9-4-5-1-31-1z" fill="#082659"/>
<path transform="translate(885,599)" d="m0 0 282 1 12 3 16 8 10 9 8 10 5 11 5 16 2 19v14l-2 23-7 37-8 40-8 35-7 23-8 17-10 15-10 10h-2l-1 8 4 9 7 15 1 3-1 16-6 36-18 90-9 44-8 30-6 16-7 13-9 10-9 6-11 5-7 1-198 1-128-1-3-1v-7l8-42 11-51 9-42 22-100 14-64 8-38 8-35 12-56 11-51 11-52 11-46 3-7zm64 144-3 8-13 61v3h159l8-3 3-4 6-18 4-20v-14l-2-8-5-4-10-1zm-41 209-5 5-8 31-10 46-3 12 1 4h163l7-2 4-4 6-19 5-25 1-7v-21l-5-8-8-6-11-5-3-1z" fill="#082659"/>
<path transform="translate(1281,600)" d="m0 0h290l11 3 12 6 11 8 8 10 7 15 5 19 1 6v32l-5 32-18 83-17 76-9 27-7 13-8 12-7 6-10 3-33 1h-208l-2 12-8 36-11 51-11 50-8 38-10 47-3 5-4 2-89-1-2-1-1-9 12-56 10-46 15-71 9-41 12-57 9-41 12-56 7-33 15-69 8-40 13-59 2-10zm67 143-3 11-11 56v4l8 1h152l7-3 6-12 6-21 1-7v-16l-3-9-1-2-3-1-12-1z" fill="#082659"/>
<path transform="translate(565,599)" d="m0 0h262l13 1-3 15-19 86-8 33-4 8-1 1-220 1-8 2-6 8-7 14-7 25-19 89-14 64-10 50-4 22-1 9v13l2 8 7 1 222 1 2 1-2 11-13 63-13 61-4 6-157 1h-80l-19-1-16-4-12-5-8-6-7-7-8-14-6-15-4-18-1-8v-9l4-27 7-38 17-81 11-50 9-43 19-89 24-111 6-22 7-16 9-13 13-12 5-3 4-1z" fill="#082659"/>
<path transform="translate(921,1833)" d="m0 0 13 1 7 2 1 2 1 133v31l-3 3-7 1-3-1h-10l-8 2h-19l-6-3-8-9-6-10-5-16-2-12-1-17 2-17 4-17 6-16 5-6 10-5h20l10 1v-16l-1-18zm-21 65-5 3-7 14-2 9-1 14v16l2 13 5 12 7 6h8l8-4 6-9 2-9 1-9v-23l-2-15-4-10-8-7-3-1z" fill="#0B295B"/>
<path transform="translate(380,1833)" d="m0 0 13 1 5 3 2 4v68l1 31v50l-1 11-4 4-8 1-7-2-17 3h-13l-7-3-7-10-7-16-4-13-1-6v-32l6-24 8-16 4-5 6-3h17l13 4h2v-18zm-23 66-6 5-4 9-2 7-1 9v30l3 14 5 8 6 4h10l8-5 4-8 2-15v-24l-2-17-3-8-6-7-4-2z" fill="#0B285B"/>
<path transform="translate(87,1832)" d="m0 0h9l5 5 4 12 10 44 11 50 6 27 7 32-1 5h-13l-4-4-7-29-3-10h-38l-2 1-3 12-4 20-4 8-8 3h-4l-1-2v-12l5-29 9-45 10-42 7-28 4-12zm2 41-4 14-8 43v7h29l1-2-10-49-4-11z" fill="#09275A"/>
<path transform="translate(771,1877)" d="m0 0 16 2 6 4 4 5 4 12 1 17 1 43 3 23 5 16v5l-4 3-10 1-7-3-4-5-5 1-7 6-4 1h-17l-5-3-6-7-6-13-2-9v-16l4-11 7-8 13-8 23-7 3-5v-11l-4-12-4-1h-7l-7 4-9 12-5 4-8 3-1-1-1-9 2-10 5-10 6-7 7-4zm2 70-10 3-8 5-3 5v12l3 9 5 5 5 1 14-7 4-5 2-4v-18l-4-6z" fill="#0B285B"/>
<path transform="translate(992,1877)" d="m0 0h10l10 3 9 7 9 14 5 13 3 13 1 11v11l-2 18-5 15-7 12-11 11-9 4h-15l-8-3-7-6-9-14-4-12-2-18v-17l1-17 3-15 5-13 9-10 7-5zm1 21-7 6-6 12-2 8-1 10v17l3 17 7 14 6 5h7l8-4 5-6 3-6 2-11v-32l-2-12-4-9-7-8-2-1z" fill="#0B285B"/>
<path transform="translate(1638,1877)" d="m0 0h12l11 4 10 9 6 10 4 9 2 9 1 13v14l-2 21-4 15-8 15-10 9-6 3-5 1h-8l-10-2-8-6-9-14-5-15-3-20v-21l3-18 4-13 5-9 5-6 9-6zm1 21-7 6-4 8-2 6-1 10v26l3 17 5 10 7 6h8l6-3 6-7 4-11 2-12v-24l-3-14-6-12-6-5-2-1z" fill="#0A285A"/>
<path transform="translate(1212,1877)" d="m0 0 13 1 8 3 6 4 7 9 7 16 3 12 1 12v17l-2 17-3 12-9 15-10 10-11 4h-11l-9-3-8-7-6-10-5-14-3-15-1-10v-12l2-20 4-16 7-13 7-7 8-4zm1 20-6 4-8 16-2 9-1 18 2 19 4 12 5 8 6 4h8l7-4 7-10 2-7v-25l-1-22-3-10-4-6-6-5-2-1z" fill="#0B285B"/>
<path transform="translate(534,1877)" d="m0 0h11l9 2 9 6 4 5 4 9 2 8v6l-4 5h-6l-6-4-6-7-6-10-6-1-7 3-3 5-1 8 2 7 8 5 16 7 11 9 4 5 5 10 1 4v16l-3 14-7 11-8 6-8 3h-16l-9-3-9-9-6-12-2-8v-11l2-7 5 2 8 7 7 9 7 6 5 2 9-2 4-5 1-3v-10l-4-5-21-10-10-7-8-9-3-10-1-7 2-14 4-11 9-10 7-4z" fill="#0B295B"/>
<path transform="translate(1437,1878)" d="m0 0h13l10 3 7 5 7 10 4 8 4 13 2 16v22l-3 21-8 16-10 11-10 5h-17l-8-4-9-10-8-16-4-13-1-4v-34l5-21 4-11 7-10 10-6zm3 20-7 5-6 12-3 12-1 9v15l2 13 4 11 6 9 4 3h10l6-4 5-6 4-11v-41l-2-12-5-10-5-4-2-1z" fill="#0A285A"/>
<path transform="translate(475,1879)" d="m0 0h9l4 4 1 2 1 99 1 17-4 5-5 1-6-2-2-5-12 6-11 2-14-1-5-5-5-8-4-14-1-6-1-17v-57l1-16 3-4h8l7 2 1 1 1 90 2 9 4 1h9l8-4 4-5 2-6 1-23 1-63z" fill="#0B295B"/>
<path transform="translate(1315,1878)" d="m0 0h9l7 2 4 4 4 13 3 14 1 8 1 74v7l-3 5-3 1h-7l-5-4-2-8-1-25v-57l-4-10-5-3h-7l-6 4-4 5-2 5-1 6-1 39v47l-2 1h-12l-3-5-1-7v-22l1-88 4-2h24l5-3z" fill="#0C2A5C"/>
<path transform="translate(275,1879)" d="m0 0h16l6 3 4 6 4 11 1 9 1 67 1 30-4 2h-10l-3-5-1-8-1-75-2-13-4-6-2-1h-9l-7 4-4 7-1 5-2 90-3 2h-12l-1-2-1-22v-81l1-19 1-2h27z" fill="#0B285B"/>
<path transform="translate(1129,1877)" d="m0 0h9l10 3 8 7 6 8 5 11 1 5v12l-2 2-7-1-7-6-8-12-5-5-3-2h-8l-5 5-4 9-1 4-1 16v28l3 12 3 6 4 5 7 1 6-3 7-8 9-17 3-2h8l1 2v13l-5 16-6 10-6 7-9 6-3 1h-9l-8-3-8-7-7-9-6-13-4-14-2-14v-16l3-19 5-16 6-10 7-7 8-4z" fill="#0A285A"/>
<path transform="translate(1380,1833)" d="m0 0h9l7 2 4 5-1 8-11 11-2 5v9l4 4 7 3 2 2-1 8-3 6-4 6-2 11-1 9v78l-3 5-3 1h-9l-3-3-2-5-1-24-1-68-4-8-4-9 1-9 5-3 2-1 1-3 2-25 4-10 4-4z" fill="#0A285A"/>
<path transform="translate(1885,1571)" d="m0 0h10l9 3 11 9 7 10 6 12 3 15 1 12v19l-3 16-5 11-7 11-9 9-11 6-4 1h-14l-7-4-5-4-10-14-6-14-4-14-1-6v-22l3-14 9-21 8-10 8-7zm-2 14-6 4-9 10-8 13-4 10v24l7 21 6 9 9 10 5 3 7 1 10-5 9-9 8-14 3-9 2-16v-10l-2-13-7-14-9-10-10-5z" fill="#0E2B5D"/>
<path transform="translate(600,1844)" d="m0 0 8 1 3 3 2 25v3l7 2 5 5v10l-5 5-6 2-1 5v30l1 40 3 7 5 6 5 10v7l-4 2-13 1-7-3-5-8-2-7-1-10v-47l-1-22-3-11-5-9-1-5 4-6 5-3 1-2 1-23 2-6z" fill="#102D5E"/>
<path transform="translate(1570,1845)" d="m0 0 7 1 4 4 2 22 2 4 7 6 1 2v7l-4 6-3 3h-2l-1 21v36l2 18 5 14 6 15v3l-7 2-11-1-4-2-5-10-2-7-2-22v-59l-3-10-3-4h-4l-1-4 2-6 4-2 5-7 1-3-1-19 3-7z" fill="#0B295B"/>
<path transform="translate(643,1878)" d="m0 0 10 3 4 2h10l6-4h7l4 4v14l-2 7-6 3-10 3-4 1-1 60-2 32-3 3-8 1-5-4-1-94-1-14v-12z" fill="#0C2A5C"/>
<path transform="translate(1503,1881)" d="m0 0 7 1 3 1h10l10-2h8l5 2 5 6-1 5-13 11-12 9-3 4-2 12-1 72-4 3h-9l-3-4-1-118z" fill="#09275A"/>
<path transform="translate(203,1881)" d="m0 0h15v126h-15l-3-2-1-3-1-14v-106z" fill="#092659"/>
<path transform="translate(705,1880)" d="m0 0h7l6 3 1 2v12l-2 41v29l1 15v23l-4 2h-9l-4-3-1-7-1-25v-86l2-5z" fill="#0F2C5E"/>
<path transform="translate(1887,1604)" d="m0 0 9 2 7 6 3 7v10l-4 19-2 10-2 5-5 2-10-5-6-8-5-15v-10l-1-1v-8l4-6 8-7zm-5 12-5 4v5l16 1v-2l-11-4 6 1 2 1v-2l4 1v6l2-1v-7l-4-3z" fill="#102D5E"/>
<path transform="translate(465,1818)" d="m0 0 7 1 3 2-1 7-10 18-9 15-5 6-4-2-1-6 9-21 5-15 4-4z" fill="#0F2C5D"/>
<path transform="translate(1709,1973)" d="m0 0 6 1 5 5v22l-3 5-2 1h-9l-5-3-1-2 1-12 2-10 4-6z" fill="#0C295B"/>
<path transform="translate(199,1833)" d="m0 0h11l6 2 1 3 1 17-2 5h-11l-6-4-1-17z" fill="#102D5E"/>
<path transform="translate(704,1832)" d="m0 0 9 1 4 4 1 4v12l-2 5-3 2h-8l-5-6-1-3v-17z" fill="#153161"/>
<path transform="translate(1882,1619)" d="m0 0 6 1h4l3 3-1 4-4-1h3v-2l-7-1-6-2z" fill="#F1F3F5"/>
</svg>